PathFileType	4	(X/Y/Z)	D:\MotionData\NordSprintingStudy\Test 2\Edited\COP_Left_Board_FP2000002.trc
DataRate	CameraRate	NumFrames	NumMarkers	Units	OrigDataRate	OrigDataStartFrame	OrigNumFrames
200.00	200.00	     30	5	mm	200.00	7936	     12696
Frame#	Time	M1			M2			M3			M4			M5			
		X1	Y1	Z1	X2	Y2	Z2	X3	Y3	Z3	X4	Y4	Z4	X5	Y5	Z5	

7936	39.675	853.63007	642.91803	465.48758	560.46472	511.22675	461.63278	557.05652	512.42273	662.26550	552.04639	514.03949	1062.15674	844.51404	646.32465	1065.67090	
7937	39.680	853.58197	643.00885	465.48834	560.45068	511.11517	461.59827	557.02686	512.31909	662.22076	552.01294	513.98395	1062.07849	844.41010	646.47693	1065.62061	
7938	39.685	853.54218	643.09009	465.48172	560.43835	511.06772	461.59015	557.07593	512.31305	662.12140	551.93054	514.00684	1062.04321	844.26892	646.60498	1065.62000	
7939	39.690	853.52954	643.14191	465.45825	560.49774	511.07593	461.44824	557.02661	512.34033	662.07147	551.81360	514.08868	1061.98535	844.16052	646.73541	1065.58960	
7940	39.695	853.54919	643.15924	465.44937	560.54596	511.13144	461.36047	557.00427	512.41565	661.97424	551.67438	514.23676	1061.90686	843.98407	646.84711	1065.61169	
7941	39.700	853.54675	643.13147	465.43695	560.49731	511.22150	461.28934	556.92273	512.54944	661.89557	551.48395	514.44379	1061.84595	843.86261	646.96936	1065.55249	
7942	39.705	853.56885	643.09473	465.44708	560.46686	511.38879	461.17633	556.82971	512.78223	661.79913	551.22412	514.75159	1061.81372	843.68744	647.08026	1065.48279	
7943	39.710	853.59064	643.02374	465.47171	560.40271	511.57727	461.11557	556.68896	513.05176	661.74988	550.97449	515.15710	1061.70435	843.56409	647.19055	1065.53345	
7944	39.715	853.61060	642.94745	465.46509	560.52484	511.69580	460.97928	556.53613	513.35370	661.68109	550.62921	515.60962	1061.66980	843.36572	647.35779	1065.53113	
7945	39.720	853.63324	642.88635	465.47147	560.27136	512.02527	460.94656	556.52271	513.59503	661.64801	550.26471	516.13129	1061.61707	843.13153	647.55890	1065.55261	
7946	39.725	853.61432	642.84338	465.50061	560.12207	512.23633	460.97037	556.28033	513.87866	661.60736	549.92682	516.62256	1061.57153	842.90277	647.82941	1065.52490	
7947	39.730	853.33972	642.86847	465.36429	559.95905	512.39758	460.97028	556.06329	514.17517	661.60004	549.56354	517.08466	1061.53320	842.60278	648.16150	1065.54871	
7948	39.735	853.48230	642.92871	465.55594	559.92841	512.55518	460.95383	555.78204	514.51874	661.56573	549.17328	517.57025	1061.54065	842.25653	648.58405	1065.47131	
7949	39.740	853.36261	643.05969	465.56387	559.81622	512.61780	460.93240	555.55511	514.73334	661.57727	548.87689	517.99902	1061.48193	841.91577	649.03656	1065.62793	
7950	39.745	853.23578	643.23279	465.62085	559.77618	512.67444	460.94235	555.44525	514.90857	661.55670	548.54523	518.43890	1061.51306	841.50507	649.56586	1065.62524	
7951	39.750	853.09039	643.43591	465.67270	559.66937	512.73181	460.98141	555.25720	515.07727	661.59125	548.23297	518.85040	1061.56262	840.99915	650.13757	1065.58838	
7952	39.755	852.92902	643.64307	465.72116	559.58258	512.74176	461.03903	555.08612	515.23260	661.62109	547.96552	519.27631	1061.49597	840.62488	650.74023	1065.73633	
7953	39.760	852.79956	643.83624	465.77298	559.46881	512.80377	461.08035	554.88025	515.40894	661.68384	547.63538	519.69489	1061.55127	840.28333	651.29169	1065.71692	
7954	39.765	852.66113	644.01599	465.86737	559.33783	512.86761	461.19992	554.80896	515.50439	661.79303	547.30725	520.14844	1061.57458	839.91931	651.84790	1065.80347	
7955	39.770	852.56671	644.19342	465.89536	559.25812	512.93842	461.18143	554.63025	515.72424	661.81152	546.97351	520.61310	1061.62122	839.55334	652.38940	1065.92188	
7956	39.775	852.45538	644.33130	465.98166	559.12585	513.04968	461.30762	554.40985	515.93738	661.89832	546.67053	521.11487	1061.66516	839.16925	652.91962	1065.97583	
7957	39.780	852.33575	644.46747	466.03455	559.00677	513.14215	461.32303	554.14124	516.15289	662.00024	546.36621	521.55969	1061.69763	838.84650	653.43433	1066.06201	
7958	39.785	852.25305	644.60669	466.09241	558.88690	513.25195	461.37482	553.89844	516.45471	661.92969	546.07178	522.04352	1061.72375	838.52197	653.94177	1066.08667	
7959	39.790	852.17218	644.72473	466.11511	558.81750	513.35443	461.37543	553.73169	516.68292	661.95441	545.82153	522.52551	1061.70410	838.33539	654.42938	1066.20349	
7960	39.795	852.09125	644.82501	466.15906	558.71753	513.48651	461.41821	553.57837	516.89587	661.97882	545.54926	522.99646	1061.72864	838.10217	654.87909	1066.18103	
7961	39.800	852.02753	644.91522	466.16946	558.64166	513.58588	461.41965	553.45319	517.12769	661.96765	545.29340	523.42426	1061.74731	837.84247	655.28436	1066.20020	
7962	39.805	852.00555	644.99255	466.16010	558.72284	513.60321	461.38504	553.33948	517.35980	661.92767	545.14233	523.82709	1061.68884	837.63745	655.64716	1066.19348	
7963	39.810	851.98230	645.01038	466.15485	558.67908	513.73926	461.31705	553.22192	517.57007	661.92029	544.93573	524.22290	1061.66394	837.46967	655.97382	1066.15466	
7964	39.815	851.94128	645.02808	466.15082	558.41284	513.99817	461.34424	553.22498	517.72540	661.91693	544.77936	524.60217	1061.61877	837.33881	656.22089	1066.13367	
7965	39.820	851.98688	645.00775	466.10910	558.43988	514.13708	461.22195	553.22369	517.93518	661.82080	544.62549	524.96344	1061.56152	837.24060	656.42993	1066.11279	
